<svg xmlns="http://www.w3.org/2000/svg" shape-rendering="geometricPrecision" text-rendering="geometricPrecision" image-rendering="optimizeQuality" fill-rule="evenodd" clip-rule="evenodd" viewBox="0 0 443 511.932"><path d="M221.013 103.932c52.548 33.306 100.022 49.068 140.763 45.34 7.113 143.916-46.033 228.911-140.213 264.379-90.955-33.199-144.759-114.529-140.766-266.562 52.729 2.762 98.324-10.611 140.216-43.157zM443 178.202c0 8.926-5.323 16.608-12.967 20.046v30.991c0 2.767-1.13 5.284-2.957 7.108a10.018 10.018 0 01-7.101 2.947h-40.994a395.636 395.636 0 002.835-18.859h30.713v-21.97c-7.911-3.323-13.466-11.144-13.466-20.263 0-12.133 9.835-21.968 21.969-21.968 12.133 0 21.968 9.835 21.968 21.968zM116.38 49.944c8.925 0 16.606 5.323 20.044 12.967h30.993a10.03 10.03 0 017.108 2.957 10.023 10.023 0 012.947 7.101v33.021a225.476 225.476 0 01-18.86 8.201V80.415h-21.97c-3.324 7.911-11.144 13.466-20.262 13.466-12.134 0-21.969-9.835-21.969-21.969 0-12.132 9.835-21.968 21.969-21.968zm96.123 35.005V42.347c-8.062-3.254-13.75-11.151-13.75-20.378C198.753 9.836 208.588 0 220.721 0c12.134 0 21.968 9.836 21.968 21.969 0 8.806-5.181 16.4-12.662 19.903v42.422a540.733 540.733 0 01-9.092-5.638 274.673 274.673 0 01-8.432 6.293zm93.385-4.538l-21.969.004v31.771a363.038 363.038 0 01-18.86-8.621V72.969c0-2.768 1.128-5.281 2.947-7.101a10.03 10.03 0 017.108-2.957h30.992c3.438-7.645 11.119-12.967 20.045-12.967 12.133 0 21.969 9.835 21.969 21.968 0 12.134-9.836 21.969-21.969 21.969-9.121 0-16.942-5.557-20.263-13.47zM116.38 461.989c8.925 0 16.606-5.323 20.044-12.966h30.993c2.766 0 5.283-1.131 7.108-2.958a10.023 10.023 0 002.947-7.101v-20.988a224.772 224.772 0 01-18.86-12.691v26.233l-21.97.003c-3.322-7.913-11.143-13.469-20.262-13.469-12.134 0-21.969 9.835-21.969 21.969 0 12.133 9.835 21.968 21.969 21.968zm96.123 7.596v-34.154a271.6 271.6 0 009.064 3.496 282.389 282.389 0 008.46-3.353v34.486c7.481 3.504 12.662 11.097 12.662 19.904 0 12.134-9.834 21.968-21.968 21.968-12.133 0-21.968-9.834-21.968-21.968 0-9.228 5.689-17.125 13.75-20.379zm71.416-38.067h21.97c3.323-7.911 11.143-13.466 20.262-13.466 12.133 0 21.969 9.835 21.969 21.969 0 12.133-9.836 21.968-21.969 21.968-8.925 0-16.607-5.323-20.045-12.966h-30.992a10.026 10.026 0 01-7.108-2.958 10.023 10.023 0 01-2.947-7.101V417.97a236.442 236.442 0 0018.86-12.667v26.215zM0 338.667c0-8.926 5.323-16.608 12.967-20.045V287.63c0-2.767 1.13-5.283 2.957-7.108a10.023 10.023 0 017.101-2.947h51.186a313.221 313.221 0 006.206 18.859H30.471v21.971c7.911 3.323 13.466 11.143 13.466 20.262 0 12.133-9.835 21.969-21.969 21.969C9.835 360.636 0 350.8 0 338.667zm30.468-140.201l.003 21.969H62.24a429.26 429.26 0 002.978 18.859H23.025a10.018 10.018 0 01-7.101-2.947 10.023 10.023 0 01-2.957-7.108v-30.991C5.323 194.81 0 187.128 0 178.202c0-12.133 9.835-21.968 21.968-21.968 12.134 0 21.969 9.835 21.969 21.968 0 9.12-5.556 16.941-13.469 20.264zM443 338.667c0-8.926-5.323-16.608-12.967-20.045V287.63c0-2.767-1.13-5.283-2.957-7.108a10.023 10.023 0 00-7.101-2.947h-49.94a299.496 299.496 0 01-6.272 18.859h48.766l.003 21.97c-7.913 3.323-13.469 11.142-13.469 20.263 0 12.133 9.835 21.969 21.969 21.969 12.133 0 21.968-9.836 21.968-21.969zM177.326 221.593v-2.761c0-12.522 4.937-23.938 12.89-32.237 8.018-8.357 19.091-13.549 31.285-13.549 12.197 0 23.272 5.189 31.284 13.549 7.956 8.299 12.893 19.711 12.893 32.237v2.761h-13.654v-2.76c0-8.907-3.466-16.974-9.052-22.8-5.525-5.762-13.126-9.337-21.475-9.337-8.344 0-15.95 3.578-21.471 9.337-5.588 5.826-9.051 13.896-9.051 22.8v2.76h-13.649zm38.258 58.723l-7.779 20.372h27.386l-7.204-20.65c4.573-2.354 7.701-7.119 7.701-12.618 0-7.836-6.352-14.188-14.19-14.188-7.835 0-14.183 6.352-14.183 14.188-.001 5.722 3.388 10.652 8.269 12.896zm-43.142-50.173h98.117c3.965 0 7.208 3.239 7.208 7.204v76.172c0 3.965-3.243 7.208-7.208 7.208h-98.117c-3.966 0-7.208-3.243-7.208-7.208v-76.172c0-3.965 3.242-7.204 7.208-7.204z"/></svg>